<?xml version="1.0" standalone="no"?>
<!DOCTYPE svg PUBLIC "-//W3C//DTD SVG 20010904//EN"
 "http://www.w3.org/TR/2001/REC-SVG-20010904/DTD/svg10.dtd">
<svg version="1.0" xmlns="http://www.w3.org/2000/svg"
 width="700.000000pt" height="700.000000pt" viewBox="0 0 700.000000 700.000000"
 preserveAspectRatio="xMidYMid meet">
<metadata>
Created by potrace 1.14, written by Peter Selinger 2001-2017
</metadata>
<g transform="translate(0.000000,700.000000) scale(0.100000,-0.100000)"
fill="#000000" stroke="none">
<path d="M6016 6675 c-175 -177 -321 -325 -324 -328 -3 -4 -4 -55 -3 -113 l1
-107 -1172 -1173 -1173 -1173 -33 21 c-93 58 -221 106 -326 125 -76 13 -248 7
-329 -11 -261 -59 -483 -234 -597 -471 -89 -185 -223 -309 -387 -361 -26 -8
-86 -17 -133 -19 -154 -8 -224 -16 -322 -36 -221 -44 -449 -151 -638 -297 -76
-59 -232 -224 -293 -310 -137 -191 -237 -439 -272 -672 -14 -92 -13 -297 1
-374 70 -367 364 -778 784 -1094 60 -46 202 -129 285 -167 188 -88 308 -114
490 -110 154 4 187 8 323 41 602 147 1064 658 1151 1274 6 41 13 139 16 216 8
249 53 390 159 496 104 104 227 145 460 153 108 3 143 8 173 24 113 58 154
184 98 298 -30 60 -82 98 -158 115 -69 16 -94 33 -119 82 -28 55 -21 179 18
291 26 77 27 83 16 175 l-11 95 1212 1212 1212 1212 100 -1 c55 0 105 1 111 1
6 1 158 148 338 327 l326 325 0 112 0 112 -218 218 -217 217 -115 -1 -115 -1
-319 -323z"/>
</g>
</svg>
